<?xml version="1.0" encoding="UTF-8"?>
<!DOCTYPE svg PUBLIC "-//W3C//DTD SVG 1.1//EN" "http://www.w3.org/Graphics/SVG/1.1/DTD/svg11.dtd">
<!-- Creator: CorelDRAW -->
<svg xmlns="http://www.w3.org/2000/svg" xml:space="preserve" width="0.81in" height="0.91in" version="1.1" style="shape-rendering:geometricPrecision; text-rendering:geometricPrecision; image-rendering:optimizeQuality; fill-rule:evenodd; clip-rule:evenodd"
viewBox="0 0 135.81 152.57"
 xmlns:xlink="http://www.w3.org/1999/xlink"
 xmlns:xodm="http://www.corel.com/coreldraw/odm/2003">
 <defs>
  <style type="text/css">
   <![CDATA[
    .fil0 {fill:#1A253D}
   ]]>
  </style>
 </defs>
 <g id="Layer_x0020_1">
  <metadata id="CorelCorpID_0Corel-Layer"/>
  <g id="_2226154243600">
   <path class="fil0" d="M122.95 0.56l8.8 60.5c0.41,3.35 -0.34,3.21 4.05,3.21 0,-4.24 -3.46,-26.91 -4.31,-32.02l-3.55 -23.84c-0.34,-2.5 -1.09,-5.78 -1.09,-8.42l-0.16 0c-1.66,0 -2.53,0.09 -3.75,0.56z"/>
   <path class="fil0" d="M-0 152.57l7.74 -0.64c11.69,-1.24 30.14,-2.2 39.61,-3.42 4.45,-0.58 11.14,-1.13 15.8,-1.52 0,-4.3 1.96,-4.25 -12.76,-2.71l-25.23 2.16c-7.2,0.36 -18.88,2.23 -25.16,2.23l0 3.91z"/>
   <path class="fil0" d="M34.52 46.26l32.68 34.08c1.02,1.02 1.86,1.74 2.79,2.8 2.31,2.63 4.79,6.2 8.25,8.52l2.7 -2.34c-1.6,-2.42 -40.28,-40.92 -43.5,-45.72l-2.92 2.67z"/>
  </g>
 </g>
</svg>
